<svg height="508pt" viewBox="-54 0 508 508" width="508pt" xmlns="http://www.w3.org/2000/svg"><path d="m208 468c0-2.199219-1.800781-4-4-4h-8c-2.199219 0-4 1.800781-4 4v9.246094c0 2.203125 1.800781 4 4 4h8c2.199219 0 4-1.796875 4-4zm0 0" fill="#656d78"/><path d="m180 476.007812c-2.207031 0-4-1.792968-4-4v-48.015624c0-2.207032 1.792969-4 4-4s4 1.792968 4 4v48.015624c0 2.207032-1.792969 4-4 4zm0 0" fill="#f7c292"/><path d="m220 476.007812c-2.207031 0-4-1.792968-4-4v-48.015624c0-2.207032 1.792969-4 4-4s4 1.792968 4 4v48.015624c0 2.207032-1.792969 4-4 4zm0 0" fill="#f7c292"/><path d="m200 440c4.398438 0 8 11.601562 8 16s-3.601562 8-8 8-8-3.601562-8-8 3.601562-16 8-16zm0 0" fill="#ffce54"/><path d="m216 400c0-2.238281-3.601562-4-8-4 0 0 56-154 56-236 0-81.839844-23.921875-143.769531-55.839844-159.921875 16.398438.480469 33.519532 2.320313 50.480469 5.921875v.078125c53.359375 24 85.359375 89.921875 85.359375 161.921875s-112 228-112 228h8c-4.398438 0-8 1.761719-8 4 0-2.238281-3.601562-4-8-4s-8 1.761719-8 4zm0 0" fill="#da4453"/><path d="m136 160c0-81.839844 23.921875-143.769531 55.839844-159.921875 2.71875-.078125 5.441406-.078125 8.160156-.078125s5.441406 0 8.160156.078125c31.917969 16.152344 55.839844 78.082031 55.839844 159.921875 0 82-56 236-56 236-4.398438 0-8 1.761719-8 4 0-2.238281-3.601562-4-8-4 0 0-56-154-56-236zm0 0" fill="#ed5565"/><path d="m136 160c0 82 56 236 56 236-4.398438 0-8 1.761719-8 4 0-2.238281-3.601562-4-8-4s-8 1.761719-8 4c0-.800781-.488281-1.601562-1.359375-2.238281l1.28125.167969c-3.363281-4.808594-111.921875-159.058594-111.921875-229.929688 0-72 32-137.921875 85.359375-161.921875v-.078125c16.960937-3.601562 34.082031-5.441406 50.488281-5.921875-31.925781 16.152344-55.847656 78.082031-55.847656 159.921875zm0 0" fill="#da4453"/><path d="m224 468h-48c-2.207031 0-4 1.792969-4 4v24c0 6.617188 5.382812 12 12 12h32c6.617188 0 12-5.382812 12-12v-24c0-2.207031-1.792969-4-4-4zm0 0" fill="#ffd2a6"/><path d="m228 492v-8h-12v-16h-8v16h-16v-16h-8v16h-12v8h12v16h8v-16h16v16h8v-16zm0 0" fill="#f7c292"/><path d="m400 168c0 77.359375-88.480469 177.039062-152 232 0-2.238281-3.601562-4-8-4l-13.246094 7.503906s117.246094-163.503906 117.246094-235.503906-32-137.921875-85.359375-161.921875v-.078125c72.320313 15.199219 141.359375 61.511719 141.359375 162zm0 0" fill="#ed5565"/><path d="m0 168c0 77.359375 88.480469 177.039062 152 232 0-2.238281 3.601562-4 8-4l13.246094 7.503906s-117.246094-163.503906-117.246094-235.503906 32-137.921875 85.359375-161.921875v-.078125c-72.320313 15.199219-141.359375 61.511719-141.359375 162zm0 0" fill="#ed5565"/><path d="m160 396c2.71875 0 5.199219.71875 6.640625 1.761719.871094.636719 1.359375 1.4375 1.359375 2.238281 0-2.238281 3.601562-4 8-4s8 1.761719 8 4c0-2.238281 3.601562-4 8-4s8 1.761719 8 4c0-2.238281 3.601562-4 8-4s8 1.761719 8 4c0-2.238281 3.601562-4 8-4s8 1.761719 8 4c0-2.238281 3.601562-4 8-4s8 1.761719 8 4l-24 24h-48l-24-24c0-2.238281 3.601562-4 8-4zm0 0" fill="#e6e9ed"/></svg>